<svg height="512" viewBox="0 0 60 60" width="512" xmlns="http://www.w3.org/2000/svg"><g id="Page-1" fill="none" fill-rule="evenodd"><g id="001---Share" fill-rule="nonzero"><g id="color" transform="translate(1 1)"><path id="Shape" d="m58 10v38c.0009617 1.1662659-.2020987 2.3237101-.6 3.42l-21.65-22.42 21.66-22.39c.3910639 1.08742149.5906852 2.23439798.59 3.39z" fill="#00bcd4"/><path id="Shape" d="m57.41 6.61-2.41 2.53c.0149516.28647171.0149516.57352829 0 .86v38 .9l2.44 2.52c.3842856-1.0987204.5737974-2.2560965.56-3.42v-38c.0006852-1.15560202-.1989361-2.30257851-.59-3.39z" fill="#00838f"/><path id="Shape" d="m57.4 51.42c-1.4381653 3.9515907-5.194838 6.5812617-9.4 6.58h-38c-4.20516195.0012617-7.96183474-2.6284093-9.4-6.58l21.65-22.42.28.28c1.6956882 1.7536578 4.0305996 2.743875 6.47 2.743875s4.7743118-.9902172 6.47-2.743875l.28-.28z" fill="#02a9f4"/><path id="Shape" d="m35.75 29-.28.28c-.4117815.4230783-.8639312.8048936-1.35 1.14l20.28 21c-1.4381653 3.9515907-5.194838 6.5812617-9.4 6.58h3c4.205162.0012617 7.9618347-2.6284093 9.4-6.58z" fill="#0377bc"/><path id="Shape" d="m22.25 29-21.65 22.42c-.39790133-1.0962899-.60096173-2.2537341-.6-3.42v-38c-.00068522-1.15560202.19893606-2.30257851.59-3.39z" fill="#00bcd4"/><path id="Shape" d="m57.41 6.61-21.66 22.39-.28.28c-1.6956882 1.7536578-4.0305996 2.743875-6.47 2.743875s-4.7743118-.9902172-6.47-2.743875l-.28-.28-21.66-22.39c1.4294075-3.96686491 5.1934585-6.61090073 9.41-6.61h38c4.2165415-.00090073 7.9805925 2.64313509 9.41 6.61z" fill="#02a9f4"/><path id="Shape" d="m48 0h-3c4.2165415-.00090073 7.9805925 2.64313509 9.41 6.61l-21.66 22.39-.28.28c-1.3413743 1.3867292-3.0953658 2.3023128-5 2.61 2.9342356.5069991 5.9293018-.4701413 8-2.61l.28-.28 21.66-22.39c-1.4294075-3.96686491-5.1934585-6.61090073-9.41-6.61z" fill="#0377bc"/><g fill="#f5f5f5"><path id="Shape" d="m4 21c-.55228475 0-1-.4477153-1-1v-2c0-.5522847.44771525-1 1-1s1 .4477153 1 1v2c0 .5522847-.44771525 1-1 1z"/><path id="Shape" d="m4 42c-.55228475 0-1-.4477153-1-1v-17c0-.5522847.44771525-1 1-1s1 .4477153 1 1v17c0 .5522847-.44771525 1-1 1z"/></g></g><g id="outline" fill="#000"><path id="Shape" d="m49 0h-38c-6.07513225 0-11 4.92486775-11 11v38c0 6.0751322 4.92486775 11 11 11h38c6.0751322 0 11-4.9248678 11-11v-38c0-6.07513225-4.9248678-11-11-11zm-38 2h38c3.5730906.00169329 6.8067939 2.11694338 8.24 5.39l-21.24 21.93-.29.29c-1.507537 1.5612585-3.5847014 2.4430247-5.755 2.4430247s-4.247463-.8817662-5.755-2.4430247l-21.44-22.22c1.4332061-3.27305662 4.66690939-5.38830671 8.24-5.39zm47 9v38c-.002693.482805-.046181.9645189-.13 1.44l-19.73-20.44 19.74-20.4c.0755537.4629348.1156701.9309603.12 1.4zm-56 38v-38c.00432986-.4690397.04444633-.9370652.12-1.4l19.74 20.4-19.73 20.44c-.08381898-.4754811-.12730704-.957195-.13-1.44zm47 9h-38c-3.55873326-.0043757-6.78069171-2.1053121-8.22-5.36l20.5-21.2c3.7993777 3.4923849 9.6406223 3.4923849 13.44 0l20.5 21.2c-1.4393083 3.2546879-4.6612667 5.3556243-8.22 5.36z"/><path id="Shape" d="m24.71 12.71 5.29-5.3 5.29 5.3c.1877666.1893127.4433625.2957983.71.2957983s.5222334-.1064856.71-.2957983c.1893127-.1877666.2957983-.4433625.2957983-.71s-.1064856-.5222334-.2957983-.71l-6-6c-.1877666-.18931265-.4433625-.29579832-.71-.29579832s-.5222334.10648567-.71.29579832l-6 6c-.3921222.3921222-.3921222 1.0278778 0 1.42s1.0278778.3921222 1.42 0z"/><path id="Shape" d="m30 12c-.5522847 0-1 .4477153-1 1v11c0 .5522847.4477153 1 1 1s1-.4477153 1-1v-11c0-.5522847-.4477153-1-1-1z"/></g></g></g></svg>