<svg height="512" viewBox="0 0 60 60" width="512" xmlns="http://www.w3.org/2000/svg"><g id="Page-1" fill="none" fill-rule="evenodd"><g id="006---Call" fill-rule="nonzero" transform="translate(-1)"><g id="color" transform="translate(2 1)"><path id="Shape" d="m58 29c.0007896 10.3528507-5.5175456 19.9209431-14.4790565 25.1048451-8.9615108 5.1839021-20.0068825 5.1973005-28.9809435.0351549l-13.28 3.86c-.35853367.095469-.74045398-.0154171-.99211393-.2880487-.25165995-.2726316-.33168696-.6621884-.20788607-1.0119513l4.62-11.89c-6.741401-10.3787707-6.15346141-23.8920206 1.46388574-33.6460655 7.61734716-9.75404484 20.58532216-13.59920023 32.28840876-9.57388863s19.5620529 15.03395573 19.5677055 27.40995413z" fill="#e91e63"/><path id="Shape" d="m11.54 54.14-11.44 3.29c.19543986.4479235.68599852.6889739 1.16.57l11.32-3.3c-.35-.18-.7-.36-1.04-.56z" fill="#ad1457"/><path id="Shape" d="m29 0c-.5 0-1 0-1.5-.00004404 16.0162577-.0275702 29.0223858 12.93378634 29.05 28.95004404s-12.9337423 29.0223858-28.95 29.05h1.4c16.0162576-.0000002 28.9999996-12.9837424 28.9999996-29s-12.983742-28.99999976-28.9999996-29z" fill="#ad1457"/><path id="Shape" d="m50.35 17c-.3474864-.0014496-.6693085-.1831844-.85-.48-2.9583191-4.8423707-7.5298295-8.48612308-12.91-10.29-.5246705-.1739697-.8089697-.74032949-.635-1.265.1739697-.5246705.7403295-.80896969 1.265-.635 5.8360946 1.95375575 10.7944522 5.9062751 14 11.16.2833209.4723694.1313036 1.0849097-.34 1.37-.1601773.0951234-.3437416.1436121-.53.14z" fill="#f5f5f5"/><path id="Shape" d="m49.05 34.6c1.1280211.1309088 1.9525626 1.1274135 1.87 2.26-.0875162 2.9228407-1.2562554 5.7092858-3.28 7.82-6.16 6.16-18.81 3.5-28.25-5.94s-12.1-22.1-6-28.25c2.1123035-2.02132153 4.8977741-3.18965192 7.82-3.28 1.136316-.08819334 2.1390148.73781848 2.27 1.87l.77 7c.0520915.5963074-.1754463 1.1830345-.6159587 1.5883058-.4405123.4052714-1.0441343.5832113-1.6340413.4816942-.7337905-.1664088-1.4955606.1256689-1.93.74-2.66 3.9-1.14 10.48 3.77 15.39s11.49 6.42 15.39 3.77c.6233741-.4284006.9272827-1.1901456.77-1.93-.1215465-.603189.0518067-1.2281841.4666936-1.6825841.414887-.4544 1.0215778-.6837388 1.6333064-.6174159z" fill="#a4c400"/><g fill="#90ac00"><path id="Shape" d="m20.53 9.08.77 7c.0560131.6067627-.1778057 1.2043418-.6307265 1.6119705-.4529209.4076288-1.0717429.5774264-1.6692735.4580295-.7337905-.1664088-1.4955606.1256689-1.93.74-2.66 3.9-1.14 10.48 3.77 15.39 3.77 3.76 8.52 5.52 12.29 4.94-3.5452734-.6108097-6.801307-2.3422204-9.29-4.94-4.91-4.91-6.43-11.49-3.77-15.39.4344394-.6143311 1.1962095-.9064088 1.93-.74.6128101.1255952 1.2484843-.053606 1.705464-.4807827.4569797-.4271766.6785799-1.0493407.594536-1.6692173l-.77-7c-.1309852-1.13218152-1.133684-1.95819334-2.27-1.87-.6245754.03929981-1.2459057.11947146-1.86.24.6522329.33043089 1.0817674.98043446 1.13 1.71z"/><path id="Shape" d="m49.05 34.6-7-.78c-.3599558-.0396973-.7238187.0226792-1.05.18l5.06.56c1.1280211.1309088 1.9525626 1.1274135 1.87 2.26-.0875162 2.9228407-1.2562554 5.7092858-3.28 7.82-1.9694238 1.9035718-4.5475138 3.0509635-7.28 3.24 4.07.32 7.74-.69 10.28-3.24 2.0237446-2.1107142 3.1924838-4.8971593 3.28-7.82.0599911-1.1210536-.764378-2.0945107-1.88-2.22z"/></g></g><g id="outline" fill="#000"><path id="Shape" d="m31 0c-10.9122401-.0045771-20.9663816 5.91648965-26.25453523 15.4617732-5.28815359 9.5452835-4.97622834 21.2092234.81453523 30.4582268l-4.44 11.41c-.24652938.7024775-.08247044 1.483749.42580152 2.027726s1.27662547.760618 1.99419848.562274l12.87-3.7c10.9697512 6.0989523 24.5766982 4.7243695 34.1050226-3.445312 9.5283243-8.1696814 12.9637202-21.4073754 8.6106202-33.1795111-4.3531-11.77213573-15.5744423-19.5900615-28.1256428-19.5951769zm0 58c-4.9138911.0126153-9.743765-1.2742011-14-3.73-.2395754-.1378998-.525546-.1704787-.79-.09l-13.21 3.82 4.61-11.83c.11856903-.3000891.08505524-.6389507-.09-.91-6.98152156-10.7404761-5.78376986-24.8492168 2.9084012-34.2590856 8.692171-9.40986891 22.6617997-11.72085342 33.9212913-5.61157218 11.2594917 6.10928128 16.9370825 19.08063948 13.7864233 31.49727418-3.1506593 12.4166346-14.3259844 21.1116494-27.1361158 21.1133836z"/><path id="Shape" d="m51.16 34.6-7-.77c-.9236854-.0908466-1.8357899.261323-2.458751.9493401-.622961.6880171-.8830981 1.6305067-.701249 2.5406599.0769931.3366773-.0477439.6875002-.32.9-3.55 2.42-9.62.85-14.12-3.65s-6.07-10.57-3.65-14.12c.2109694-.2743699.5631751-.3995986.9-.32.9169918.1802132 1.8650424-.0862668 2.5538549-.7178426.6888124-.6315759 1.0363314-1.5530108.9361451-2.4821574l-.78-7c-.2034702-1.64737234-1.6647929-2.84460057-3.32-2.72-3.1636481.10649729-6.1764626 1.37786229-8.46 3.57-6.54 6.54-3.88 19.85 5.94 29.66 4.3089146 4.4859949 9.8126386 7.6438694 15.86 9.1 1.4071434.299536 2.8413429.4536789 4.28.46 3.5337005.1322373 6.9707719-1.1697383 9.53-3.61 2.1944048-2.2860763 3.4659448-5.3028672 3.57-8.47.1074202-1.6639407-1.104432-3.121676-2.76-3.32zm-2.23 10.4c-2.73 2.73-7 3.65-12 2.6-5.6628188-1.3925049-10.8087865-4.3766803-14.83-8.6-9-9-11.71-21.08-6-26.84 1.9421827-1.8501429 4.4988727-2.91839778 7.18-3h.07c.5787515-.00437889 1.0689398.42561085 1.14 1l.77 7c.0323193.2961857-.0792273.5899252-.3.79-.2229904.1921431-.5193084.2762828-.81.23-1.1249654-.2428156-2.2861854.2098634-2.95 1.15-2.9 4.33-1.2 11.49 3.94 16.67s12.33 6.84 16.66 3.9c.9656253-.6672337 1.4255559-1.8567096 1.16-3-.0583337-.2886619.023502-.5878946.2206191-.8066945.197117-.2187999.4862181-.3313071.7793809-.3033055l7 .77c.6048003.0682084 1.0469232.6031771 1 1.21-.0755691 2.7029848-1.155883 5.2807635-3.03 7.23z"/></g></g></g></svg>