<?xml version="1.0" encoding="iso-8859-1"?>
<!-- Generator: Adobe Illustrator 19.0.0, SVG Export Plug-In . SVG Version: 6.00 Build 0)  -->
<svg version="1.1" id="Layer_1" xmlns="http://www.w3.org/2000/svg" xmlns:xlink="http://www.w3.org/1999/xlink" x="0px" y="0px"
	 viewBox="0 0 496.2 496.2" style="enable-background:new 0 0 496.2 496.2;" xml:space="preserve">
<path style="fill:#25B7D3;" d="M496.2,248.1C496.2,111.1,385.1,0,248.1,0S0,111.1,0,248.1s111.1,248.1,248.1,248.1
	S496.2,385.1,496.2,248.1z"/>
<rect x="125.6" y="125.4" style="fill:#3A3536;" width="245.1" height="287.2"/>
<rect x="149.6" y="193.4" style="fill:#CCCACA;" width="197.1" height="120.2"/>
<rect x="125.6" y="336.2" style="fill:#DDDDDD;" width="245.1" height="76.4"/>
<rect x="125.6" y="125.4" style="fill:#CCCCCC;" width="245.1" height="50.3"/>
<circle style="fill:#999999;" cx="169.7" cy="153.6" r="11.1"/>
<ellipse transform="matrix(-0.7072 0.7071 -0.7071 -0.7072 398.3773 142.2925)" style="fill:#DDDDDC;" cx="169.722" cy="153.645" rx="12.601" ry="4.8"/>
<ellipse transform="matrix(-0.7071 0.7071 -0.7071 -0.7071 398.16 142.1215)" style="fill:#3A3A3A;" cx="169.646" cy="153.522" rx="12.6" ry="2.9"/>
<circle style="fill:#999999;" cx="222" cy="153.6" r="11.1"/>
<path style="fill:#DDDDDC;" d="M218.7,150.3c4.9-4.9,10.4-7.4,12.2-5.5c1.9,1.9-0.6,7.3-5.5,12.2s-10.4,7.4-12.2,5.5
	C211.3,160.6,213.7,155.2,218.7,150.3z"/>
<path style="fill:#3A3A3A;" d="M219.9,151.5c4.9-4.9,9.8-8,10.9-6.8c1.1,1.1-1.9,6-6.8,10.9c-4.9,4.9-9.8,8-10.9,6.8
	C211.9,161.3,215,156.4,219.9,151.5z"/>
<path style="fill:#999999;" d="M263.1,153.6c0-6.1,5-11.1,11.1-11.1s11.1,5,11.1,11.1s-5,11.1-11.1,11.1S263.1,159.7,263.1,153.6z"
	/>
<ellipse transform="matrix(-0.7071 0.7072 -0.7072 -0.7071 576.8557 68.2818)" style="fill:#DDDDDC;" cx="274.285" cy="153.624" rx="12.601" ry="4.8"/>
<ellipse transform="matrix(-0.707 0.7072 -0.7072 -0.707 576.8555 68.1558)" style="fill:#3A3A3A;" cx="274.309" cy="153.572" rx="12.6" ry="2.9"/>
<circle style="fill:#999999;" cx="326.5" cy="153.6" r="11.1"/>
<ellipse transform="matrix(-0.7072 0.7071 -0.7071 -0.7072 666.1 31.3499)" style="fill:#DDDDDC;" cx="326.558" cy="153.615" rx="12.601" ry="4.8"/>
<ellipse transform="matrix(-0.7071 0.7071 -0.7071 -0.7071 666.0738 31.2615)" style="fill:#3A3A3A;" cx="326.562" cy="153.579" rx="12.6" ry="2.9"/>
<polygon style="fill:#DDDDDD;" points="349.7,83.6 146.5,83.6 125.6,125.3 370.6,125.3 "/>
<g>
	<ellipse style="fill:#3A3536;" cx="191.1" cy="111.7" rx="33.2" ry="8.1"/>
	<ellipse style="fill:#3A3536;" cx="305.3" cy="111.7" rx="33.1" ry="8"/>
	<ellipse style="fill:#3A3536;" cx="201.6" cy="93" rx="28.2" ry="6.9"/>
	<ellipse style="fill:#3A3536;" cx="294.6" cy="93" rx="28.2" ry="6.9"/>
</g>
<g>
	<rect x="171.2" y="219.6" style="fill:#545253;" width="150" height="3"/>
	<rect x="171.2" y="250.6" style="fill:#545253;" width="150" height="3"/>
	<rect x="171.2" y="281.6" style="fill:#545253;" width="150" height="3"/>
</g>
<g>
</g>
<g>
</g>
<g>
</g>
<g>
</g>
<g>
</g>
<g>
</g>
<g>
</g>
<g>
</g>
<g>
</g>
<g>
</g>
<g>
</g>
<g>
</g>
<g>
</g>
<g>
</g>
<g>
</g>
</svg>
